<svg width="18" height="18" viewBox="0 0 18 18" fill="none" xmlns="http://www.w3.org/2000/svg">
<path d="M14.9023 1.11219H13.3454V0.556096C13.3454 0.222406 13.123 0 12.7893 0C12.4556 0 12.2332 0.22241 12.2332 0.556096V1.11219H5.56052V0.556096C5.56052 0.222406 5.33811 0 5.00442 0C4.67074 0 4.44833 0.22241 4.44833 0.556096V1.11219H2.89145C1.27887 1.11219 0 2.44664 0 4.00364V14.8466C0 16.4592 1.33445 17.7381 2.89145 17.7381H14.8465C16.4591 17.7381 17.738 16.4036 17.738 14.8466V4.00364C17.7937 2.4466 16.4593 1.11219 14.9023 1.11219ZM2.89153 2.22422H4.44841V3.00274C3.78118 3.22515 3.33637 3.8368 3.33637 4.55962C3.33637 5.50481 4.05915 6.22775 5.0045 6.22775C5.9497 6.22775 6.67263 5.50497 6.67263 4.55962C6.67263 3.83684 6.22782 3.22516 5.5606 3.00274V2.22422H12.2333V3.00274C11.566 3.22515 11.1212 3.8368 11.1212 4.55962C11.1212 5.50481 11.844 6.22775 12.7894 6.22775C13.7346 6.22775 14.4575 5.50497 14.4575 4.55962C14.4575 3.83684 14.0127 3.22516 13.3455 3.00274L13.3453 2.22422H14.9022C15.9031 2.22422 16.6814 3.05829 16.6814 4.00348V6.67255H1.11227V4.00348C1.11243 3.05829 1.9465 2.22422 2.89169 2.22422H2.89153ZM5.0045 4.00348C5.33819 4.00348 5.5606 4.22589 5.5606 4.55958C5.5606 4.89327 5.33819 5.11567 5.0045 5.11567C4.67081 5.11567 4.44841 4.89326 4.44841 4.55958C4.44841 4.22589 4.67097 4.00348 5.0045 4.00348ZM12.7893 4.00348C13.123 4.00348 13.3454 4.22589 13.3454 4.55958C13.3454 4.89327 13.123 5.11567 12.7893 5.11567C12.4556 5.11567 12.2332 4.89326 12.2332 4.55958C12.2332 4.22589 12.4558 4.00348 12.7893 4.00348ZM14.9023 16.6813H2.94716C1.94625 16.6813 1.1679 15.8473 1.1679 14.9021V7.78438H16.7371V14.9017C16.6815 15.847 15.8474 16.6811 14.9021 16.6811L14.9023 16.6813Z" fill="#6A56FF"/>
<path d="M7.56239 9.45282H7.00629C6.6726 9.45282 6.4502 9.67523 6.4502 10.0089C6.4502 10.3426 6.67261 10.565 7.00629 10.565H7.56239C7.89608 10.565 8.11848 10.3426 8.11848 10.0089C8.11848 9.67523 7.84051 9.45282 7.56239 9.45282Z" fill="#6A56FF"/>
<path d="M10.7875 9.45282H10.2314C9.8977 9.45282 9.67529 9.67523 9.67529 10.0089C9.67529 10.3426 9.8977 10.565 10.2314 10.565H10.7875C11.1212 10.565 11.3436 10.3426 11.3436 10.0089C11.3434 9.67523 11.0655 9.45282 10.7875 9.45282Z" fill="#6A56FF"/>
<path d="M4.33729 9.45282H3.78119C3.4475 9.45282 3.2251 9.67523 3.2251 10.0089C3.2251 10.3426 3.44751 10.565 3.78119 10.565H4.33729C4.67098 10.565 4.89338 10.3426 4.89338 10.0089C4.89338 9.67523 4.61526 9.45282 4.33729 9.45282Z" fill="#6A56FF"/>
<path d="M14.0126 9.45282H13.4565C13.1228 9.45282 12.9004 9.67523 12.9004 10.0089C12.9004 10.3426 13.1228 10.565 13.4565 10.565H14.0126C14.3463 10.565 14.5687 10.3426 14.5687 10.0089C14.5687 9.67523 14.2906 9.45282 14.0126 9.45282Z" fill="#6A56FF"/>
<path d="M4.33729 11.6771H3.78119C3.4475 11.6771 3.2251 11.8995 3.2251 12.2332C3.2251 12.5668 3.44751 12.7893 3.78119 12.7893H4.33729C4.67098 12.7893 4.89338 12.5668 4.89338 12.2332C4.89338 11.8995 4.61526 11.6771 4.33729 11.6771Z" fill="#6A56FF"/>
<path d="M7.56239 11.6771H7.00629C6.6726 11.6771 6.4502 11.8995 6.4502 12.2332C6.4502 12.5668 6.67261 12.7893 7.00629 12.7893H7.56239C7.89608 12.7893 8.11848 12.5668 8.11848 12.2332C8.11848 11.8995 7.84051 11.6771 7.56239 11.6771Z" fill="#6A56FF"/>
<path d="M14.0126 11.6771H13.4565C13.1228 11.6771 12.9004 11.8995 12.9004 12.2332C12.9004 12.5668 13.1228 12.7893 13.4565 12.7893H14.0126C14.3463 12.7893 14.5687 12.5668 14.5687 12.2332C14.5687 11.8995 14.2906 11.6771 14.0126 11.6771Z" fill="#6A56FF"/>
<path d="M10.7875 11.6771H10.2314C9.8977 11.6771 9.67529 11.8995 9.67529 12.2332C9.67529 12.5668 9.8977 12.7893 10.2314 12.7893H10.7875C11.1212 12.7893 11.3436 12.5668 11.3436 12.2332C11.3434 11.8995 11.0655 11.6771 10.7875 11.6771Z" fill="#6A56FF"/>
<path d="M10.7875 13.9013H10.2314C9.8977 13.9013 9.67529 14.1237 9.67529 14.4574C9.67529 14.7911 9.8977 15.0135 10.2314 15.0135H10.7875C11.1212 15.0135 11.3436 14.7911 11.3436 14.4574C11.3434 14.1237 11.0655 13.9013 10.7875 13.9013Z" fill="#6A56FF"/>
<path d="M14.0126 13.9013H13.4565C13.1228 13.9013 12.9004 14.1237 12.9004 14.4574C12.9004 14.7911 13.1228 15.0135 13.4565 15.0135H14.0126C14.3463 15.0135 14.5687 14.7911 14.5687 14.4574C14.5687 14.1237 14.2906 13.9013 14.0126 13.9013Z" fill="#6A56FF"/>
<path d="M7.56239 13.9013H7.00629C6.6726 13.9013 6.4502 14.1237 6.4502 14.4574C6.4502 14.7911 6.67261 15.0135 7.00629 15.0135H7.56239C7.89608 15.0135 8.11848 14.7911 8.11848 14.4574C8.11848 14.1237 7.84051 13.9013 7.56239 13.9013Z" fill="#6A56FF"/>
<path d="M4.33729 13.9013H3.78119C3.4475 13.9013 3.2251 14.1237 3.2251 14.4574C3.2251 14.7911 3.44751 15.0135 3.78119 15.0135H4.33729C4.67098 15.0135 4.89338 14.7911 4.89338 14.4574C4.89338 14.1237 4.61526 13.9013 4.33729 13.9013Z" fill="#6A56FF"/>
</svg>
