<svg width="14" height="14" viewBox="0 0 14 14" fill="none" xmlns="http://www.w3.org/2000/svg">
<g clip-path="url(#clip0_171_588)">
<path d="M9.36533 0.548778L1.65084 8.26327C1.60672 8.30781 1.57116 8.36004 1.54606 8.41751C1.53922 8.43267 1.53367 8.44784 1.52672 8.46439C1.51989 8.48095 1.51017 8.49879 1.50611 8.51812L0.40402 12.9265C0.355955 13.1153 0.411069 13.3155 0.549177 13.4531C0.687285 13.5905 0.887665 13.6449 1.07628 13.596L5.48464 12.4939C5.50397 12.4939 5.52042 12.4787 5.53837 12.4733L5.58526 12.4539C5.64272 12.4288 5.69495 12.3933 5.73949 12.3493L13.454 4.63478H13.4541C13.5563 4.53085 13.6133 4.39071 13.6125 4.24491C13.6125 3.22187 13.2061 2.24069 12.4826 1.51737C11.7593 0.793936 10.7781 0.387635 9.75522 0.387635C9.60899 0.387421 9.46874 0.44542 9.36535 0.548813L9.36533 0.548778ZM2.46076 9.24683C3.03777 9.33655 3.57097 9.60784 3.98326 10.0213C4.39544 10.4348 4.66516 10.9689 4.75315 11.5461L1.69612 12.3038L2.46076 9.24683ZM5.7215 10.8063C5.58799 10.3859 5.3829 9.99161 5.11535 9.64085C5.13981 9.62686 5.1632 9.61126 5.18563 9.59407L12.0489 2.72942C12.3077 3.11554 12.4638 3.56116 12.5021 4.02439L5.7215 10.8063ZM11.2704 1.95099L4.40572 8.81427C4.38852 8.8366 4.37282 8.8601 4.35883 8.88445C4.00807 8.61689 3.61382 8.41192 3.19341 8.2784L9.97384 1.4977C10.4375 1.53583 10.8838 1.69188 11.2702 1.95089L11.2704 1.95099Z" fill="#6A56FF"/>
</g>
<defs>
<clipPath id="clip0_171_588">
<rect width="14" height="14" fill="white"/>
</clipPath>
</defs>
</svg>
